<?xml version="1.0" encoding="utf-8"?>
<!-- Generator: Adobe Illustrator 17.1.0, SVG Export Plug-In . SVG Version: 6.00 Build 0)  -->
<!DOCTYPE svg PUBLIC "-//W3C//DTD SVG 1.1//EN" "http://www.w3.org/Graphics/SVG/1.1/DTD/svg11.dtd">
<svg version="1.1" id="Layer_1" xmlns="http://www.w3.org/2000/svg" xmlns:xlink="http://www.w3.org/1999/xlink" x="0px" y="0px"
	 viewBox="0 0 288 288" enable-background="new 0 0 288 288" xml:space="preserve">
<path fill="none" d="M159,74.8c1-2.1,2-4.3,3-6.6c1-2.3,1.8-4.1,2.4-5.7c0,0-2.5,5.3-6,13.5C158.6,75.6,158.8,75.2,159,74.8z"/>
<path d="M-120.9,61.4c-0.3-2-1.2-3.8-2.9-5.7c-1.7-1.8-3.4-3.5-5.2-5.1c-2.2-1.7-4.5-3.4-7-5.2c-1.2,3-3,6.5-5.3,10.5l-4,6.5
	c0.3-0.4-10,14.5-13.1,19.2c-3.1,4.7-7.1,10.9-12,18.7c-4.9,7.7-10.3,16.2-16.3,25.5c-6,9.3-11.6,18.3-16.9,27.1
	c-5.3,8.8-9.8,16.8-13.6,24c-3.8,7.2-6.1,12.3-6.8,15.5c-2.6-6.1-4.4-13.2-5.3-21.3c-0.9-8.2-0.1-17.6,2.4-28.4
	c2.9-12.1,7.3-23.5,13.3-34c6-10.5,11.9-19.3,17.6-26.3c0.1-0.2,0-0.4-0.3-0.4c0.8-1.5,1.9-3.2,3.2-5.1c1.3-1.9,2.1-3.6,2.4-4.9
	c0.2-0.9-0.6-2.4-2.3-4.6c-1.7-2.2-3.7-4.4-5.8-6.5c-2.1-2.1-5.1-4.9-9.1-8.2c-0.6,1.5-1.4,3.4-2.4,5.7c-1,2.3-2,4.5-3,6.6
	c-0.2,0.4-0.4,0.8-0.7,1.2c-9.4,21.6-26.6,63.5-26.9,82.6c0,0.5,0,1.1,0,1.6c0,1.2,0.2,2.3,0.4,3.3l-0.3,0.1
	c0.4,13.5,2.2,25,5.6,34.5c4.3,12,11.4,19.3,21.5,21.9c0.8-3.4,2.9-8.4,6.4-15c3.5-6.6,7.7-14,12.9-22.2
	c5.1-8.2,10.6-16.7,16.5-25.6c5.9-8.9,11.7-17.4,17.4-25.4c5.7-8,10.9-15.1,15.7-21.4c4.8-6.2,17.5-23.5,20.3-26.4
	c1.4-1.8,2.5-3.9,3.4-6.1C-120.3,65.6-120.2,63.4-120.9,61.4z"/>
<circle fill="none" stroke="#000000" stroke-width="15.6398" stroke-miterlimit="10" cx="-228.2" cy="133.6" r="134.9"/>
<path d="M-213.2,39.8c0.1-1.2-1.1-3.2-3.8-5.8c-2.7-2.6-5.6-5.2-8.8-7.8c-3.2-2.5-7.7-5.7-13.5-9.5c-0.6,2.1-1.3,4.8-2.3,8
	c-1,3.2-1.9,6.3-2.9,9.3c-0.3,0.8-0.7,1.7-1,2.6c-3.4,11.3-7.7,26.3-11.7,42.1c-2.2,3.6-4.4,7.4-6.6,11.3
	c-4.1,7.1-8.4,14.3-12.9,21.5c-5.4,8.8-11.5,17.6-18.2,26.5c-6.7,8.8-14.4,16.4-23,22.8c-8.7,6.4-18.5,11-29.4,13.7
	c-4.9,1.2-10,1.9-15.5,1.9c1.9,5.9,4.9,14.6,6.4,17.1c2.9-0.1,5.8-0.4,8.6-0.8c10.8-1.6,20.9-5,30.4-10.3
	c9.5-5.3,18.5-12.2,26.9-20.7c7.6-7.7,15-16.4,22.3-26c-0.2,2.5-0.4,5-0.5,7.3c2.3,24.5,7.2,44.3,14.8,59.5
	c7.7,15.4,18.5,24,32.3,25.9c0,0-17.9-16.3-24.2-38.5c0,0,0.1,0.2,0.2,0.4c-1.2-3.6-2.4-7.5-3.3-11.6c-2.6-10.8-3-23.6-1.4-38.4
	c1.8-16.7,6-32.6,12.3-47.7c6.4-15.1,12.8-27.7,19.2-38c0-0.3-0.1-0.5-0.4-0.5c0.9-2.1,2-4.5,3.4-7.4
	C-214.2,44-213.4,41.6-213.2,39.8z"/>
<path fill="#FFFFFF" d="M229.4,66.5h-95.9l0.1,26h26.8l0-7.2H234c27.7,4.5,25.6,29.8,25.6,29.8c2.8,35.6-34.7,34.8-34.7,34.8h-57.5
	v19h68.3c48.5-0.6,48-51.5,48-51.5C284.4,64.9,229.4,66.5,229.4,66.5z"/>
<polygon fill="#FFFFFF" points="5.4,66.5 5.4,169.8 34.1,169.8 34.1,100.7 120.9,168.2 152,168.2 23.7,66.5 "/>
<polygon fill="#FFFFFF" points="160,100 133,100 133,114.2 69.4,66.6 35,66.6 160,162.3 "/>
<rect x="-118.1" y="4.5" fill="#00B7AA" width="62.2" height="24.9"/>
<g>
</g>
<g>
</g>
<g>
</g>
<g>
</g>
<g>
</g>
<g>
</g>
</svg>
