<?xml version="1.0" encoding="utf-8"?>
<!-- Generator: Adobe Illustrator 18.1.1, SVG Export Plug-In . SVG Version: 6.00 Build 0)  -->
<svg version="1.1" id="Layer_1" xmlns="http://www.w3.org/2000/svg" xmlns:xlink="http://www.w3.org/1999/xlink" x="0px" y="0px"
	 width="432px" height="144px" viewBox="-269 325 432 144" enable-background="new -269 325 432 144" xml:space="preserve">
<path fill="#33006F" d="M-100.7,381.8h2.8v5.1h-2.8V381.8z M-100.7,389.6h2.8v22.2h-2.8V389.6z"/>
<path fill="#33006F" d="M-67.7,405.3c-1.4,2.8-4.4,7.1-11,7.1c-6.9,0-11.9-5.4-11.9-11.6c0-6.4,5.3-11.7,11.9-11.7
	c3.9,0,8.9,1.9,11,7.3h-3.1c-1.8-3.4-5-4.7-7.8-4.7c-4.3,0-9.2,3.2-9.2,9c0,5,3.9,9.1,9.2,9.1c4.6,0,6.9-2.8,7.8-4.5H-67.7z"/>
<path fill="#33006F" d="M-60.8,381.8h2.8v10.7h0.1c0.9-1.3,3-3.4,6.8-3.4c2.7,0,5,0.7,7,2.7c1.7,1.6,2.8,4.2,2.8,7.8v12.2h-2.8
	v-12.2c0-2.9-0.9-4.9-2.1-6.1c-1.5-1.5-3.6-1.9-4.8-1.9c-1.3,0-3.3,0.4-4.8,1.9c-1.2,1.2-2.1,3.2-2.1,6.1v12.2h-2.8V381.8z"/>
<path fill="#33006F" d="M-22.5,389.1c6.6,0,11.6,5.6,11.6,11.6c0,6-5,11.6-11.6,11.6c-6.5,0-11.6-5.5-11.6-11.5
	C-34,393.9-28.3,389.1-22.5,389.1z M-22.4,409.8c4.3,0,8.8-3.4,8.8-9.2c0-5.8-4.9-9-8.8-9c-4.1,0-8.8,3.3-8.8,9.2
	C-31.2,406-27,409.8-22.4,409.8z"/>
<path fill="#33006F" d="M-3.7,381.8h2.8v30h-2.8V381.8z"/>
<path fill="#33006F" d="M9.1,401.8c0.2,4.3,4.3,8,8.6,8c4.1-0.1,6.9-2.5,7.9-5.2h3c-1.5,4.4-5.8,7.8-10.9,7.8
	c-6.2,0-11.6-5-11.6-11.6c0-6.3,5.1-11.6,11.5-11.7c4.9,0,8.3,2.9,9.9,5.7c1.5,2.4,1.8,4.9,1.7,7H9.1z M26.4,399.2
	c-0.9-5.2-5.2-7.6-8.7-7.6c-3.5,0-7.8,2.4-8.6,7.6H26.4z"/>
<path fill="#33006F" d="M79.4,401.8c0.2,4.3,4.3,8,8.6,8c4.1-0.1,6.9-2.5,7.9-5.2h3c-1.5,4.4-5.8,7.8-10.9,7.8
	c-6.2,0-11.6-5-11.6-11.6c0-6.3,5.1-11.6,11.5-11.7c4.9,0,8.3,2.9,9.9,5.7c1.5,2.4,1.8,4.9,1.7,7H79.4z M96.7,399.2
	c-0.9-5.2-5.2-7.6-8.7-7.6c-3.5,0-7.8,2.4-8.6,7.6H96.7z"/>
<path fill="#33006F" d="M106.7,381.8h2.8v5.1h-2.8V381.8z M106.7,389.6h2.8v22.2h-2.8V389.6z"/>
<path fill="#33006F" d="M117.7,389.6h2.8v3.2h0.1c1.3-3.1,3.9-3.6,6.2-3.8v3c-2,0.2-3.7,0.9-4.8,2.2c-1,1.2-1.5,2.8-1.5,4.6v13h-2.8
	V389.6z"/>
<path fill="#33006F" d="M142.6,389.1c6.6,0,11.6,5.6,11.6,11.6c0,6-5,11.6-11.6,11.6c-6.5,0-11.6-5.5-11.6-11.5
	C131,393.9,136.7,389.1,142.6,389.1z M142.6,409.8c4.3,0,8.8-3.4,8.8-9.2c0-5.8-4.9-9-8.8-9c-4.1,0-8.8,3.3-8.8,9.2
	C133.8,406,138,409.8,142.6,409.8z"/>
<path fill="#33006F" d="M71.3,389.5h-2.9c-0.5,10.9-8.4,18.7-19.8,19.8v2.9C61.3,411.1,70.8,401.8,71.3,389.5z"/>
<polygon fill="#33006F" points="50.7,412.2 50.7,411.2 50.7,410.1 50.7,390.9 50.7,389.9 50.7,389.4 48,389.4 48,389.8 48,390.9 
	48,410.2 48,411.2 48,412.2 "/>
<path fill="#33006F" d="M-111.7,412.1h2.9c-0.5-12.3-7.8-21.6-20.5-22.6v2.9C-117.9,393.4-112.2,401.2-111.7,412.1z"/>
<polygon fill="#33006F" points="-128.8,412.1 -128.8,411.2 -128.8,410.1 -128.8,391 -128.8,389.9 -128.8,389.5 -131.5,389.5 
	-131.5,389.9 -131.5,390.9 -131.5,410.1 -131.5,411.2 -131.5,412.1 "/>
<polygon fill="#33006F" points="-108.3,412.1 -108.3,411.2 -108.3,410.1 -108.3,391 -108.3,389.9 -108.3,389.5 -110.9,389.5 
	-110.9,389.9 -110.9,390.9 -110.9,410.1 -110.9,411.2 -110.9,412.1 "/>
<path fill="#33006F" d="M-154,375.3c0,21-17,37.9-37.9,37.9v-37.9h-10.9v16.4c-8.6-10.6-21.8-17.4-36.5-17.4h-10.9v47.1h10.9v-37.9
	c17.4,0,32,11.7,36.5,27.6v11.2h10.9c26,0,47.1-21.1,47.1-47.1H-154z"/>
</svg>
